<svg xmlns="http://www.w3.org/2000/svg" width="1500" height="1000" viewBox="0 0 1500 1000">
  <defs>
    <marker id="arrow" markerWidth="10" markerHeight="7" refX="9" refY="3.5" orient="auto">
      <polygon points="0 0, 10 3.5, 0 7" fill="#334155" />
    </marker>
  </defs>
  <rect x="0" y="0" width="1500" height="1000" fill="#f8fafc" />

<text x="60" y="40" font-family="Segoe UI, Arial" font-size="20" fill="#0f172a">Диаграмма 4. Архитектура системы</text>
<rect x="120" y="90" width="1260" height="180" rx="16" ry="16" fill="#ffffff" stroke="#334155" stroke-width="2"/>
<text x="140" y="122" font-family="Segoe UI, Arial" font-size="18" fill="#0f172a">Presentation Layer</text>
<rect x="150" y="160" width="270" height="80" rx="10" ry="10" fill="#f1f5f9" stroke="#334155" stroke-width="1.5"/>
<text x="285.0" y="184" text-anchor="middle" font-family="Segoe UI, Arial" font-size="14" fill="#0f172a">Web UI</text>
<rect x="450" y="160" width="270" height="80" rx="10" ry="10" fill="#f1f5f9" stroke="#334155" stroke-width="1.5"/>
<text x="585.0" y="184" text-anchor="middle" font-family="Segoe UI, Arial" font-size="14" fill="#0f172a">Responsive screens</text>
<rect x="120" y="310" width="1260" height="180" rx="16" ry="16" fill="#ffffff" stroke="#334155" stroke-width="2"/>
<text x="140" y="342" font-family="Segoe UI, Arial" font-size="18" fill="#0f172a">Application Layer</text>
<rect x="150" y="380" width="270" height="80" rx="10" ry="10" fill="#f1f5f9" stroke="#334155" stroke-width="1.5"/>
<text x="285.0" y="404" text-anchor="middle" font-family="Segoe UI, Arial" font-size="14" fill="#0f172a">Diary service</text>
<rect x="450" y="380" width="270" height="80" rx="10" ry="10" fill="#f1f5f9" stroke="#334155" stroke-width="1.5"/>
<text x="585.0" y="404" text-anchor="middle" font-family="Segoe UI, Arial" font-size="14" fill="#0f172a">Analytics service</text>
<rect x="750" y="380" width="270" height="80" rx="10" ry="10" fill="#f1f5f9" stroke="#334155" stroke-width="1.5"/>
<text x="885.0" y="404" text-anchor="middle" font-family="Segoe UI, Arial" font-size="14" fill="#0f172a">Recommendation service</text>
<rect x="1050" y="380" width="270" height="80" rx="10" ry="10" fill="#f1f5f9" stroke="#334155" stroke-width="1.5"/>
<text x="1185.0" y="404" text-anchor="middle" font-family="Segoe UI, Arial" font-size="14" fill="#0f172a">Forum service</text>
<rect x="120" y="530" width="1260" height="180" rx="16" ry="16" fill="#ffffff" stroke="#334155" stroke-width="2"/>
<text x="140" y="562" font-family="Segoe UI, Arial" font-size="18" fill="#0f172a">Domain Layer</text>
<rect x="150" y="600" width="270" height="80" rx="10" ry="10" fill="#f1f5f9" stroke="#334155" stroke-width="1.5"/>
<text x="285.0" y="624" text-anchor="middle" font-family="Segoe UI, Arial" font-size="14" fill="#0f172a">Entry rules</text>
<rect x="450" y="600" width="270" height="80" rx="10" ry="10" fill="#f1f5f9" stroke="#334155" stroke-width="1.5"/>
<text x="585.0" y="624" text-anchor="middle" font-family="Segoe UI, Arial" font-size="14" fill="#0f172a">Trend analysis</text>
<rect x="750" y="600" width="270" height="80" rx="10" ry="10" fill="#f1f5f9" stroke="#334155" stroke-width="1.5"/>
<text x="885.0" y="624" text-anchor="middle" font-family="Segoe UI, Arial" font-size="14" fill="#0f172a">Recommendation rules</text>
<rect x="1050" y="600" width="270" height="80" rx="10" ry="10" fill="#f1f5f9" stroke="#334155" stroke-width="1.5"/>
<text x="1185.0" y="624" text-anchor="middle" font-family="Segoe UI, Arial" font-size="14" fill="#0f172a">Specialist selection</text>
<rect x="120" y="750" width="1260" height="180" rx="16" ry="16" fill="#ffffff" stroke="#334155" stroke-width="2"/>
<text x="140" y="782" font-family="Segoe UI, Arial" font-size="18" fill="#0f172a">Infrastructure Layer</text>
<rect x="150" y="820" width="270" height="80" rx="10" ry="10" fill="#f1f5f9" stroke="#334155" stroke-width="1.5"/>
<text x="285.0" y="844" text-anchor="middle" font-family="Segoe UI, Arial" font-size="14" fill="#0f172a">PostgreSQL</text>
<rect x="450" y="820" width="270" height="80" rx="10" ry="10" fill="#f1f5f9" stroke="#334155" stroke-width="1.5"/>
<text x="585.0" y="844" text-anchor="middle" font-family="Segoe UI, Arial" font-size="14" fill="#0f172a">Timescale store</text>
<rect x="750" y="820" width="270" height="80" rx="10" ry="10" fill="#f1f5f9" stroke="#334155" stroke-width="1.5"/>
<text x="885.0" y="844" text-anchor="middle" font-family="Segoe UI, Arial" font-size="14" fill="#0f172a">External AI API</text>
<rect x="1050" y="820" width="270" height="80" rx="10" ry="10" fill="#f1f5f9" stroke="#334155" stroke-width="1.5"/>
<text x="1185.0" y="844" text-anchor="middle" font-family="Segoe UI, Arial" font-size="14" fill="#0f172a">Specialist API</text>
<line x1="300" y1="250" x2="300" y2="310" stroke="#334155" stroke-width="1.5" marker-end="url(#arrow)"/>
<line x1="600" y1="250" x2="600" y2="310" stroke="#334155" stroke-width="1.5" marker-end="url(#arrow)"/>
<line x1="900" y1="250" x2="900" y2="310" stroke="#334155" stroke-width="1.5" marker-end="url(#arrow)"/>
<line x1="1200" y1="250" x2="1200" y2="310" stroke="#334155" stroke-width="1.5" marker-end="url(#arrow)"/>
<line x1="300" y1="470" x2="300" y2="530" stroke="#334155" stroke-width="1.5" marker-end="url(#arrow)"/>
<line x1="600" y1="470" x2="600" y2="530" stroke="#334155" stroke-width="1.5" marker-end="url(#arrow)"/>
<line x1="900" y1="470" x2="900" y2="530" stroke="#334155" stroke-width="1.5" marker-end="url(#arrow)"/>
<line x1="1200" y1="470" x2="1200" y2="530" stroke="#334155" stroke-width="1.5" marker-end="url(#arrow)"/>
<line x1="300" y1="690" x2="300" y2="750" stroke="#334155" stroke-width="1.5" marker-end="url(#arrow)"/>
<line x1="600" y1="690" x2="600" y2="750" stroke="#334155" stroke-width="1.5" marker-end="url(#arrow)"/>
<line x1="900" y1="690" x2="900" y2="750" stroke="#334155" stroke-width="1.5" marker-end="url(#arrow)"/>
<line x1="1200" y1="690" x2="1200" y2="750" stroke="#334155" stroke-width="1.5" marker-end="url(#arrow)"/>
</svg>
